<?xml version="1.0" encoding="utf-8"?>
<!DOCTYPE svg PUBLIC "-//W3C//DTD SVG 1.1//EN" "http://www.w3.org/Graphics/SVG/1.1/DTD/svg11.dtd">
<svg version="1.1" id="图层_1" xmlns="http://www.w3.org/2000/svg" xmlns:xlink="http://www.w3.org/1999/xlink" x="0px" y="0px"
	 width="170px" height="61px" viewBox="0 0 170 61" enable-background="new 0 0 170 61" xml:space="preserve">
<line fill="none" stroke="#2B3F15" stroke-width="1.5" stroke-linecap="round" stroke-linejoin="round" stroke-miterlimit="10" x1="28.845" y1="39.859" x2="28.845" y2="24.196"/>
<path fill="none" stroke="#2B3F15" stroke-width="1.5" stroke-linecap="round" stroke-linejoin="round" stroke-miterlimit="10" d="
	M28.562,39.868c-1.316-3.875-6.528-7.831-10.36-7.831"/>
<path fill="none" stroke="#2B3F15" stroke-width="1.5" stroke-linecap="round" stroke-linejoin="round" stroke-miterlimit="10" d="
	M39.358,31.879c-3.866,0-8.938,4.081-10.209,7.989"/>
<path fill="#FFCC00" d="M19.169,30.283c0.255-1.604-0.84-3.11-2.444-3.365c-0.111-0.017-0.221-0.013-0.33-0.018
	c0.062-0.091,0.128-0.177,0.179-0.277c0.737-1.448,0.162-3.218-1.285-3.956c-1.448-0.738-3.218-0.163-3.956,1.285
	c-0.051,0.1-0.08,0.204-0.119,0.307c-0.068-0.085-0.13-0.177-0.209-0.256c-1.148-1.148-3.011-1.148-4.159,0
	c-1.148,1.149-1.148,3.012,0,4.159c0.079,0.08,0.169,0.141,0.255,0.209C7,28.411,6.895,28.441,6.794,28.491
	C5.347,29.229,4.772,31,5.508,32.447c0.738,1.446,2.509,2.022,3.957,1.284c0.1-0.051,0.186-0.117,0.278-0.178
	c0.004,0.11,0.001,0.219,0.019,0.329c0.254,1.605,1.759,2.699,3.364,2.445c1.604-0.254,2.699-1.761,2.445-3.366
	c-0.017-0.109-0.055-0.212-0.084-0.318c0.106,0.03,0.207,0.066,0.318,0.085C17.41,32.982,18.917,31.887,19.169,30.283"/>
<path fill="none" stroke="#383128" stroke-width="1.5" stroke-linecap="round" stroke-linejoin="round" stroke-miterlimit="10" d="
	M19.169,30.283c0.255-1.604-0.84-3.11-2.444-3.365c-0.111-0.017-0.221-0.013-0.33-0.018c0.062-0.091,0.128-0.177,0.179-0.277
	c0.737-1.448,0.162-3.218-1.285-3.956c-1.448-0.738-3.218-0.163-3.956,1.285c-0.051,0.1-0.08,0.204-0.119,0.307
	c-0.068-0.085-0.13-0.177-0.209-0.256c-1.148-1.148-3.011-1.148-4.159,0c-1.148,1.149-1.148,3.012,0,4.159
	c0.079,0.08,0.169,0.141,0.255,0.209C7,28.411,6.895,28.441,6.794,28.491C5.347,29.229,4.772,31,5.508,32.447
	c0.738,1.446,2.509,2.022,3.957,1.284c0.1-0.051,0.186-0.117,0.278-0.178c0.004,0.11,0.001,0.219,0.019,0.329
	c0.254,1.605,1.759,2.699,3.364,2.445c1.604-0.254,2.699-1.761,2.445-3.366c-0.017-0.109-0.055-0.212-0.084-0.318
	c0.106,0.03,0.207,0.066,0.318,0.085C17.41,32.982,18.917,31.887,19.169,30.283z"/>
<path fill="#E45544" d="M39.143,13.482c-0.748-2.3-3.219-3.558-5.519-2.811c-0.159,0.052-0.301,0.13-0.449,0.198
	c0.018-0.163,0.049-0.321,0.049-0.489c0-2.418-1.961-4.38-4.379-4.38c-2.42,0-4.381,1.961-4.381,4.38
	c0,0.167,0.032,0.326,0.049,0.489c-0.148-0.068-0.29-0.146-0.448-0.198c-2.302-0.747-4.771,0.511-5.519,2.811
	c-0.748,2.301,0.511,4.771,2.812,5.52c0.159,0.052,0.319,0.071,0.479,0.103c-0.109,0.121-0.228,0.231-0.327,0.366
	c-1.422,1.958-0.987,4.697,0.969,6.119c1.957,1.421,4.696,0.988,6.117-0.969c0.1-0.135,0.168-0.283,0.249-0.423
	c0.081,0.141,0.149,0.288,0.246,0.423c1.422,1.957,4.161,2.391,6.118,0.969c1.958-1.422,2.391-4.161,0.969-6.119
	c-0.098-0.135-0.216-0.245-0.327-0.366c0.161-0.032,0.32-0.051,0.48-0.103C38.631,18.253,39.89,15.783,39.143,13.482"/>
<path fill="none" stroke="#3F291E" stroke-width="1.5" stroke-linecap="round" stroke-linejoin="round" stroke-miterlimit="10" d="
	M39.143,13.482c-0.748-2.3-3.219-3.558-5.519-2.811c-0.159,0.052-0.301,0.13-0.449,0.198c0.018-0.163,0.049-0.321,0.049-0.489
	c0-2.418-1.961-4.38-4.379-4.38c-2.42,0-4.381,1.961-4.381,4.38c0,0.167,0.032,0.326,0.049,0.489
	c-0.148-0.068-0.29-0.146-0.448-0.198c-2.302-0.747-4.771,0.511-5.519,2.811c-0.748,2.301,0.511,4.771,2.812,5.52
	c0.159,0.052,0.319,0.071,0.479,0.103c-0.109,0.121-0.228,0.231-0.327,0.366c-1.422,1.958-0.987,4.697,0.969,6.119
	c1.957,1.421,4.696,0.988,6.117-0.969c0.1-0.135,0.168-0.283,0.249-0.423c0.081,0.141,0.149,0.288,0.246,0.423
	c1.422,1.957,4.161,2.391,6.118,0.969c1.958-1.422,2.391-4.161,0.969-6.119c-0.098-0.135-0.216-0.245-0.327-0.366
	c0.161-0.032,0.32-0.051,0.48-0.103C38.631,18.253,39.89,15.783,39.143,13.482z"/>
<path fill="#FFCC00" d="M41.917,32.729c0.111-0.019,0.213-0.056,0.319-0.085c-0.029,0.106-0.067,0.209-0.084,0.318
	c-0.255,1.605,0.841,3.111,2.444,3.365c1.605,0.254,3.111-0.84,3.366-2.444c0.017-0.111,0.013-0.219,0.018-0.329
	c0.091,0.062,0.177,0.128,0.277,0.178c1.447,0.738,3.218,0.163,3.956-1.284c0.737-1.448,0.162-3.218-1.286-3.956
	c-0.1-0.051-0.204-0.081-0.306-0.12c0.085-0.068,0.175-0.128,0.255-0.208c1.148-1.149,1.148-3.011,0-4.159
	c-1.149-1.149-3.011-1.149-4.16,0c-0.079,0.078-0.141,0.169-0.208,0.255c-0.039-0.103-0.069-0.207-0.119-0.307
	c-0.737-1.447-2.509-2.022-3.956-1.285c-1.448,0.737-2.023,2.509-1.285,3.956c0.051,0.1,0.118,0.185,0.177,0.277
	c-0.109,0.004-0.217,0.001-0.328,0.018c-1.604,0.254-2.699,1.762-2.444,3.366C38.807,31.889,40.313,32.983,41.917,32.729"/>
<path fill="none" stroke="#383128" stroke-width="1.5" stroke-linecap="round" stroke-linejoin="round" stroke-miterlimit="10" d="
	M41.917,32.729c0.111-0.019,0.213-0.056,0.319-0.085c-0.029,0.106-0.067,0.209-0.084,0.318c-0.255,1.605,0.841,3.111,2.444,3.365
	c1.605,0.254,3.111-0.84,3.366-2.444c0.017-0.111,0.013-0.219,0.018-0.329c0.091,0.062,0.177,0.128,0.277,0.178
	c1.447,0.738,3.218,0.163,3.956-1.284c0.737-1.448,0.162-3.218-1.286-3.956c-0.1-0.051-0.204-0.081-0.306-0.12
	c0.085-0.068,0.175-0.128,0.255-0.208c1.148-1.149,1.148-3.011,0-4.159c-1.149-1.149-3.011-1.149-4.16,0
	c-0.079,0.078-0.141,0.169-0.208,0.255c-0.039-0.103-0.069-0.207-0.119-0.307c-0.737-1.447-2.509-2.022-3.956-1.285
	c-1.448,0.737-2.023,2.509-1.285,3.956c0.051,0.1,0.118,0.185,0.177,0.277c-0.109,0.004-0.217,0.001-0.328,0.018
	c-1.604,0.254-2.699,1.762-2.444,3.366C38.807,31.889,40.313,32.983,41.917,32.729z"/>
<path fill="#FFCC00" d="M32.349,17.088c0,1.936-1.569,3.505-3.504,3.505c-1.936,0-3.505-1.569-3.505-3.505
	c0-1.935,1.569-3.504,3.505-3.504C30.78,13.584,32.349,15.153,32.349,17.088"/>
<circle fill="none" stroke="#383128" stroke-width="1.5" stroke-linecap="round" stroke-linejoin="round" stroke-miterlimit="10" cx="28.844" cy="17.088" r="3.505"/>
<path fill="#FFCC00" d="M13.687,29.092c0,0.969-0.784,1.752-1.752,1.752s-1.752-0.783-1.752-1.752c0-0.968,0.784-1.752,1.752-1.752
	S13.687,28.125,13.687,29.092"/>
<circle fill="none" stroke="#383128" stroke-width="1.5" stroke-linecap="round" stroke-linejoin="round" stroke-miterlimit="10" cx="11.934" cy="29.092" r="1.752"/>
<polygon fill-rule="evenodd" clip-rule="evenodd" fill="#F1B565" points="35.854,55.64 21.835,55.64 19.207,43.373 38.482,43.373 
	"/>
<polygon fill="none" stroke="#383128" stroke-width="1.5" stroke-linecap="round" stroke-linejoin="round" stroke-miterlimit="10" points="
	35.854,55.64 21.835,55.64 19.207,43.373 38.482,43.373 "/>
<rect x="17.455" y="39.868" fill-rule="evenodd" clip-rule="evenodd" fill="#F1B565" width="22.78" height="3.505"/>
<rect x="17.455" y="39.868" fill="none" stroke="#383128" stroke-width="1.5" stroke-linecap="round" stroke-linejoin="round" stroke-miterlimit="10" width="22.78" height="3.505"/>
<path fill="#FFCC00" d="M44.036,29.092c0,0.969,0.785,1.752,1.752,1.752c0.968,0,1.752-0.783,1.752-1.752
	c0-0.968-0.784-1.752-1.752-1.752C44.821,27.34,44.036,28.125,44.036,29.092"/>
<circle fill="none" stroke="#383128" stroke-width="1.5" stroke-linecap="round" stroke-linejoin="round" stroke-miterlimit="10" cx="45.788" cy="29.092" r="1.752"/>
<text transform="matrix(1 0 0 1 66 28.5)" fill="#000" font-family="'SimSun'" font-weight="bold" font-size="15">第一福利導航</text>
<text transform="matrix(1, 0, 0, 1, 75, 48.5)" fill="#000" font-family="'SimSun'" font-size="15" letter-spacing="1.5px">fuli.one</text>
</svg>
