<svg version="1.1" xmlns="http://www.w3.org/2000/svg" xmlns:xlink="http://www.w3.org/1999/xlink" x="0px" y="0px" viewBox="0 0 370 65" style="enable-background:new 0 0 403 65;" xml:space="preserve"><g><path id="lig" d="M46,21.2c1,0.1,1.3,0.6,0.8,1.4c-0.1,0.3-0.5,0.8-1,1.6l-0.4,0.8c2.6-0.3,3.9-0.1,3.7,0.6c0,0.7-0.7,1-2.2,1.2h-7.8c0.5,3.7,1.6,6.9,3.3,9.8c0.7-1.3,1.3-2.9,2-4.9c0.1-0.9,0.6-1.1,1.4-0.6c0.9,0.8,1.4,1.5,1.6,2.2c0.1,0.9-0.3,1.5-1.2,1.8c-0.1,0.1-0.9,1.4-2.4,3.7c2.5,3.9,6.6,7,12.4,9.2c0.5,0.1,0.8,0.3,0.8,0.6c0,0.3-0.2,0.6-0.6,1c-1.7,1.4-3.6,1.6-5.7,0.4c-3.4-2.4-6.2-5.4-8.4-9.2c-0.1,0.1-0.5,0.5-1,1c-0.4,0.5-0.7,0.9-1,1.2c-0.4,0.3-0.7,0.3-0.8,0.2c-0.1-0.3-0.1-0.6,0-1c0.7-0.9,1.2-2,1.8-3.1c-2-3.9-3.4-8-4.3-12.2c-5,0-7.8,0.1-8.6,0.2c-2,0.4-3.1,2.2-3.3,5.5c-0.1,8.1-2.8,13.5-8,16.3c-1.6,0.8-2.6,0.9-3.1,0.2c-0.3-0.7,0.3-1.4,1.8-2.4c4.3-2.2,6.9-5.4,7.6-9.6c-1-0.3-2.2-0.3-3.3,0c-0.7,0.3-1.1,0.8-1.4,1.6c-0.3,0.4-0.5,1.4-0.8,2.9c-0.1,0.5-0.5,0.7-1,0.6c-0.5-0.4-0.7-0.9-0.6-1.6c0.5-2.6,0.6-4.2,0.2-4.7c-0.4-0.9,0.1-1.3,1.4-1.2c0.1,0.1,0.4,0.3,0.8,0.4c0.3,0.3,0.5,0.5,0.6,0.6l4.3-0.4c0-2.2,0-3.8,0-4.7c-1.8,0-3.3,0.4-4.3,1.2c-0.8,0.5-1.4,0.7-1.8,0.4c-0.4-0.4-0.4-1,0-1.8c0.4-1,0.3-2.2-0.2-3.5c-0.4-1-0.3-1.6,0.4-1.6c0.8,0.1,1.3,0.5,1.6,1.2c0,0.8,0,1.4,0,2c0,0.5,0.3,0.8,1,0.8c1.2,0,2.3,0,3.3,0c0-0.8,0-1.5,0-2.2c-0.3-1.6,0.3-2.2,1.8-1.8c1.3,0.1,2.7,0.2,4.3,0.2c3,0,5.4-0.1,7.1-0.2c0-0.1,0-0.5,0-1c-0.1-0.5-0.2-0.8-0.2-1c0-0.9,0.3-1.4,1-1.4c0.8-0.3,1.2,0.1,1.4,1.2c0,0.7,0.1,1.3,0.2,2H44c0.1-0.3,0.3-0.9,0.4-2c0,0.3,0.1,0.1,0.2-0.6C44.7,21.4,45.2,21.1,46,21.2z M24.8,12.8c1.8,0,2.7,0.6,2.5,1.8c0,0.1,0,0.3,0,0.4c-0.3,0.9-0.4,1.8-0.4,2.5c1.2,0,2.5,0,3.9,0c0.8-0.1,1.1,0.1,1,0.6c0,0.5-0.7,0.9-2,1.2c-1.2,0-2.2,0.1-2.9,0.2c0,2.5-0.3,3.7-0.8,3.7c-0.7-0.3-1-1-1.2-2.2v-0.4c-0.1-0.5-0.2-0.9-0.2-1.2c-2.1,0-3.6,0.1-4.5,0.4c-2.5,0.5-3.7,0.5-3.7,0c0.4-1.4,1.6-2.2,3.5-2.2c0.4,0.1,1.2,0.1,2.5,0c0.8,0,1.4,0,2,0c0-1.3-0.2-2.3-0.6-2.9C23.6,13.9,23.9,13.3,24.8,12.8z M34.4,29c1.3,0,2.2,0.3,2.5,1c0.1,0.5-0.3,0.8-1.2,0.8c-0.5,0-1.2,0-2,0l-0.2,3.1c0.7,0,1.2,0,1.8,0c1.3,0.4,1.8,0.9,1.6,1.6c-0.4,0.8-0.5,1.6-0.4,2.4c-0.1,1-0.6,1.7-1.4,2c-0.3,0-0.7,0-1.2,0l-0.6,3.5c2,0.1,3.6,0.2,4.9,0.2c0.7,0.1,0.8,0.5,0.4,1c-0.8,1.3-1.8,1.6-3.1,1c-1.2-0.7-2.9-0.8-5.1-0.6c-0.3,0.1-0.8,0.4-1.6,0.8c-0.7,0.3-1.2,0.5-1.6,0.8c-0.7,0.3-1.2,0.2-1.8-0.2c-0.4-0.3-0.4-0.7,0-1.2c0.5-1,0.8-3,1-5.9c0.3-4.2,0.3-7,0.2-8.4c-0.1-0.9,0.3-1.4,1.2-1.4C31.6,29.4,33.8,29.3,34.4,29z M32.1,40c-0.1-0.1-0.6-0.1-1.4,0c-0.4,0-0.7,0-0.8,0c-1,0.1-1.7,0.7-2,1.6c0,0.4-0.1,0.8-0.2,1.2c0,0.7,0.4,0.9,1.2,0.8c0.3,0,0.7,0,1.2,0c0.8-0.1,1.4-0.2,1.8-0.2L32.1,40z M33.4,35.1c-0.9,0-2.1,0.1-3.5,0.2c-0.8,0.1-1.3,0.6-1.6,1.4v0.2c-0.1,0.4-0.2,0.7-0.2,1c-0.1,0.5,0.3,0.8,1.2,0.8c0.1,0,0.8-0.1,2.2-0.2h2c0.9,0.1,1.4-0.5,1.4-1.8C34.8,35.5,34.3,35,33.4,35.1z M32.1,30.8c-0.8,0-1.6,0.1-2.5,0.2c-0.7,0-1,0.7-1.2,2c0,0.8,0.3,1.2,1,1.2c0.7-0.1,1.6-0.2,2.9-0.2L32.1,30.8z M41.5,13.9c-0.1-1,0.4-1.4,1.6-1.2c1.4,0.4,2,1,1.6,2c-0.3,0.3-0.5,0.9-0.8,1.8v0.4c0.4,0,1,0,2,0c1.8,0.1,2.9,0.1,3.1,0c0.5-0.1,0.8-0.1,1,0.2c0.1,0.1,0.1,0.4-0.2,0.8c-0.4,1.3-1.4,1.8-2.9,1.6c-0.3,0-0.7-0.1-1.4-0.4c-0.9-0.1-1.6-0.3-2-0.4c-0.1,0.4-0.3,1-0.6,1.8c-0.4,0.9-0.6,1.4-0.6,1.6c-0.3,0.4-0.5,0.6-0.8,0.6c-0.4-0.1-0.6-0.4-0.6-0.8s0.1-1.2,0.2-2.5c-0.1,0.9-0.1,0.7,0.2-0.8c-1.8,0-3.1,0.1-3.9,0.2c-1.6,0.1-2.4,0-2.5-0.4c0.1-0.7,0.8-1.1,2.2-1.4c1.3,0,2.7,0,4.3,0C41.4,15,41.5,14.1,41.5,13.9z"></path><path id="lig" d="M94.2,16.1c1,0,1.4,0.3,1,0.8c-0.7,1.2-1.8,1.6-3.3,1.4c-1.6-0.3-4-0.3-7.3,0c-0.9-0.1-1.4,0.4-1.4,1.6c0,0.1-0.1,2-0.4,5.7c0,0.3,0.1,0.4,0.4,0.4c3.7,0,7.3,0,10.8,0c0.9,0,1.2,0.3,1,0.8c-0.5,1.3-1.9,1.8-4.1,1.6c-0.3,0-1,0-2.4,0c-2.6-0.1-4.4-0.2-5.5-0.2c-0.3,0-0.4,0.2-0.4,0.6c-0.4,2.4,0.1,3.9,1.6,4.7c7.2,4.3,14.4,7.9,21.6,10.8c0.7,0.3,1,0.5,1,0.6c0,0.1-0.3,0.4-0.8,0.8c-2.9,2-5.4,2.2-7.4,0.6C92.8,42,88,38.4,84,35.3c-1.8-1.2-3.1-1.3-3.7-0.4C76.8,40.3,72,44.4,66,47.3c-2.2,0.8-3.5,0.5-3.7-0.8c-0.4-1,0.1-1.7,1.6-2c4.7-1.6,8.9-4.3,12.5-8.2c2.6-2.9,3.9-5.5,3.9-7.8c0-0.3-0.1-0.4-0.4-0.4c-0.3,0-1.5,0.1-3.7,0.4c-2.6,0.1-4,0.3-4.1,0.4c-1.4,0.5-2.3,0.4-2.5-0.4c-0.3-1.3,0.7-2,2.7-2.2c0.5,0,1.7,0,3.5,0c2.1-0.1,3.5-0.2,4.1-0.2c0.4,0,0.5-0.2,0.4-0.6c0-1.4,0-3.4,0-5.9c-0.3-1.2-0.8-1.6-1.6-1.4c-1.8,0.1-3.7,0.3-5.7,0.6h-0.6c-1.7,0.7-2.9,0.6-3.7-0.2c-0.1-1.3,0.7-2.1,2.5-2.4c1.2,0.3,5,0.2,11.6-0.2C88.6,15.8,92.4,15.8,94.2,16.1z"></path><path id="lig" d="M113.5,16.7c0.9,0.3,5.6,0.4,14.1,0.4c8.5,0,14.5,0,18,0c3.9,0,6.5-0.1,7.8-0.2c0.4-0.1,0.7-0.1,0.8,0.2c0.1,0.1,0.1,0.4-0.2,0.8c-1.8,2.7-3.9,3.6-6.1,2.5c-2.6-0.8-7.4-1.2-14.3-1.4c-1,0.1-1.6,1-1.8,2.7c0,1.6,0,2.4,0,2.5c0,0.8,0.5,1.2,1.4,1.4c0.5,0.1,2.7,0.7,6.5,1.6c3,0.9,4.7,1.4,5.1,1.4c0.5,0.1,0.8,0.3,0.8,0.4c0,0.3-0.1,0.5-0.4,0.8c-2.4,2.4-4.3,2.9-5.9,1.6c-2.2-2-4.2-3.1-5.9-3.3c-0.9-0.3-1.4,0.1-1.4,1c0,4.7,0,9.5,0,14.3c0,3.5-0.5,5.3-1.4,5.3c-1.4-0.3-2-2.1-1.8-5.5c0.4-3.3,0.5-9.6,0.4-19v-0.2c0.1-3.8-0.7-5.6-2.5-5.3c-4.7,0-9.1,0.5-13.1,1.6c-3.3,0.9-4.8,0.9-4.7,0C109,18.5,110.5,17.3,113.5,16.7z"></path><path id="lig" d="M174.1,22.4c0.8,0.3,0.8,0.7,0.2,1.4c-1,1-2.3,1.2-3.7,0.6c-0.8-0.4-1.2,0.1-1.4,1.6c0,6.5,0,13.1,0,19.8c0.1,2-0.3,3.2-1.2,3.7c-1,0.1-1.5-1.1-1.4-3.7c0.1-2.9,0.2-6.9,0.2-12c0-0.3-0.1-0.5-0.4-0.6c-0.3-0.1-0.5-0.1-0.6,0.2c-1.7,3.3-3.4,5.6-5.1,7.1c-1.3,1.2-2.4,1.4-3.1,0.8c-0.7-0.8-0.4-1.7,0.8-2.7c3.7-3.5,6.2-6.7,7.6-9.4v-0.2c0.5-0.5,0.8-1.6,0.8-3.1c0.1-0.8-0.4-1.1-1.6-1c-2.6,0-4.2,0.2-4.9,0.6c-1.2,0.5-1.8,0.5-2-0.2c0-1.6,1.2-2.5,3.5-2.7c1.4,0.3,3.7,0.2,6.7-0.2C170,22,171.9,22.1,174.1,22.4z M164.7,14.9c1.7,0.8,3.9,1,6.5,0.8c1.3-0.1,1.8,0.2,1.6,1c-0.4,0.7-1,1-1.8,1c-2.7,0-5.6,0-8.4,0c-0.8-0.1-1.2-0.3-1.2-0.4c-0.3-0.3-0.2-0.6,0.2-1C162.6,15.1,163.6,14.6,164.7,14.9z M171,29.4c1.2-0.4,2-0.2,2.4,0.6c0.8,2.2,1.2,3.9,1.4,5.1c0.1,0.4,0.1,0.7-0.2,0.8c-0.3,0.1-0.5,0-0.8-0.4c-0.7-0.7-1.6-1.8-2.7-3.5c-0.3-0.4-0.5-0.7-0.6-1C170,30.3,170.2,29.8,171,29.4z M199.4,16.1c-0.9,1.4-2.4,2.1-4.3,2c-0.9-0.3-3.4-0.4-7.4-0.4c-4.7-0.1-7.8-0.1-9.4,0.2c-2.1,0.5-3.3,0.4-3.5-0.4c0.1-1.3,1-2,2.5-2c4.4,0.1,9.1,0.2,13.9,0.2c4-0.1,6.6-0.3,7.6-0.6c0.4-0.1,0.7-0.1,0.8,0C199.7,15.4,199.6,15.7,199.4,16.1z M178.8,32.8c0.8,0.3,3.7,0.2,8.8-0.2c0.3,0,1.4,0,3.3,0c3,0.1,4.8,0.2,5.5,0.2c2.1,0.1,2.8,1,2.2,2.7c-0.1,0.3-0.2,2-0.2,5.1c-0.3,2.4-0.6,4.2-1,5.5c-0.5,1.3-1.6,1.9-3.3,1.8c-6.8-0.4-11.7-0.3-14.7,0.4c-2,0.7-3.1-0.1-3.3-2.4c0-4.7,0-8.6,0-11.6C176.3,32.8,177.2,32.2,178.8,32.8z M186.1,41c-2.4,0-4.3,0.1-5.9,0.2c-1.3,0-1.9,0.7-1.8,2.2c0,1.6,0.6,2.4,1.8,2.4h6.1L186.1,41z M180.6,34.7c-1.3,0.1-1.9,0.7-1.8,1.6c-0.1,0.7-0.2,1.3-0.2,2c0,0.4,0.3,0.6,1,0.6c2.2,0,4.4,0,6.5,0c0-1.6,0-2.6,0-3.1c0-0.8-0.4-1.1-1.2-1C183.3,34.7,181.9,34.7,180.6,34.7z M192.7,20.8c1.7,0,2.5,0.7,2.5,2c-0.1,1.6-0.5,3.1-1,4.5c-0.5,1.2-1.6,1.8-3.1,2h-0.8c-5.2-0.1-7.9-0.1-8,0c-1.4,0.5-2.5,0-3.1-1.6c-0.3-1.7-0.3-3.4-0.2-5.1c0-1.2,0.6-1.7,1.8-1.6C185.5,20.7,189.5,20.7,192.7,20.8z M191.4,22.8c-0.3,0-0.9,0-1.8,0c-3.3-0.1-5.3-0.1-6.1,0c-1.6,0-2.3,0.7-2.2,2c0,1.4,0.6,2.2,1.8,2.2c0.5,0,1.6,0,3.1,0c2-0.1,3.3-0.2,3.9-0.2c1.4-0.1,2.2-0.8,2.4-2C192.5,23.5,192.1,22.9,191.4,22.8z M194.1,34.7c-1.4,0-2.9,0-4.3,0c-0.8-0.1-1.1,0.3-1,1.2c0,0.3,0,0.7,0,1.4c-0.1,0.8-0.2,1.3-0.2,1.6c0.7,0,1.8-0.1,3.3-0.2c1.4,0,2.5-0.1,3.1-0.2c0.5,0,0.8-0.2,0.8-0.6c0-0.7,0-1.2,0-1.8C195.7,35.2,195.1,34.7,194.1,34.7z M188.6,41v4.5c2.6,0,4.2-0.1,4.9-0.2c1-0.1,1.6-0.7,1.8-1.6c0.3-0.4,0.4-1.1,0.4-2.2c0.3-0.5,0-0.8-0.8-0.8C192.5,40.8,190.4,40.9,188.6,41z"></path><path id="lig" d="M216.2,15.1c2.5,0.8,5.5,1.3,9,1.6c1,0,1.6,0.3,1.6,1c0,0.5-0.5,0.8-1.4,0.8c-0.8,0-1.6,0-2.5,0c-0.8,0-1.2,0.4-1.2,1.2c0,1.6,0,3.2,0,4.9c0,0.3,0.1,0.4,0.4,0.4c3.1,0,5-0.1,5.5-0.2c1-0.1,1.7,0.2,2,1c-0.1,0.7-0.9,1-2.4,1.2c-1.3-0.3-3-0.4-5.1-0.4c-0.3,0-0.4,0.1-0.4,0.4c0,0.8,0.1,2.5,0.2,5.3c0.1,6.9,0.3,11.2,0.6,12.9c0.4,2.5-0.1,4-1.6,4.5c-1,0.1-1.5-1.2-1.4-4.1c0-3.4,0-7.2,0-11.4c0-0.3-0.1-0.5-0.2-0.6c-0.3,0-0.5,0.1-0.6,0.4c-2.2,3.3-5,5.9-8.4,8c-1.6,0.9-2.7,0.7-3.3-0.6c-0.5-1.2,0-2.2,1.6-2.9c7.1-3.1,10.7-6.9,11-11.4c0-0.4-0.1-0.5-0.4-0.4c-4.2,0.3-6.9,0.7-8,1.4c-1.8,0.3-2.9,0.1-3.3-0.4c0.4-1.3,1.4-2.2,3.1-2.5c3.7,0,6.4-0.1,8.2-0.2c0.3,0,0.4-0.1,0.4-0.4c0-0.4-0.1-1.6-0.2-3.7l-0.2-1.2c0-0.8-0.4-1.2-1.2-1.4c-1.2-0.3-2.5-0.3-4.1,0c-1.2,0-1.6-0.4-1.2-1.2C213.8,15.6,214.9,15,216.2,15.1z M223.9,31c1.8,0.4,3.5,1,5.1,2c1,0.8,1.3,1.7,0.8,2.7c-0.8,1.3-1.8,1.5-3.1,0.6c-1.6-1.4-2.7-2.8-3.5-4.1c-0.3-0.5-0.3-0.8-0.2-1C223,30.9,223.4,30.9,223.9,31z M247.4,14.7c1.2,0.1,1.6,1.2,1.4,3.1c-0.7,1.8-1.2,5.7-1.6,11.6c0.1,1,0.3,2.9,0.4,5.5c0.4,4.3,0.7,7.1,0.8,8.2c0,3.5-1.8,5.7-5.3,6.5c-3.5,0.1-5.8-0.4-6.7-1.6c-0.4-0.4-0.5-0.7-0.2-1c0.3-0.4,0.6-0.5,1-0.2c4.4,1.6,7.2,0.4,8.2-3.5c0.3-4.3,0.2-8.6-0.2-12.9c0-0.4-0.2-0.5-0.6-0.4c-4.3,0.7-7.4,1.6-9.2,2.9c-0.7,0.4-1.2,0.4-1.6,0c-0.4-0.5-0.5-1.1-0.2-1.8c0.5-0.8,0.7-4,0.4-9.8c0-1.2,0.4-1.7,1.2-1.6c1.2,0.1,1.7,0.8,1.6,2c0,0.4-0.1,0.9-0.2,1.6c-0.1,2.4-0.2,3.8-0.2,4.3c-0.1,0.7,0.3,1,1.4,1.2c3.5,0,5.8-0.1,6.9-0.2c0.4,0,0.5-0.1,0.4-0.4c0.3-6.4,0.4-9.7,0.4-10C245.6,15.8,246.2,14.6,247.4,14.7z"></path><path id="lig" d="M260,20.6c2.1,0.8,3.5,1.2,4.1,1.4c0.4,0.1,0.6,0.3,0.6,0.6c-0.1,0.3-0.5,0.5-1,0.6c-1.6,0-3.2,0-4.9,0c-1.2-0.1-1.8-0.6-1.8-1.4C257.7,20.7,258.7,20.3,260,20.6z M258.2,26.1c1.3-0.1,2.9,0.1,4.9,0.6c0.5,0.1,0.8,0.3,1,0.6c0,0.3-0.2,0.5-0.6,0.8c-0.7,0.4-1.2,0.9-1.6,1.6c-0.3,0.5-0.1,0.8,0.6,0.8c0.3,0,1.1,0.1,2.5,0.4c5.5,0.8,8.7,1.2,9.6,1.4c3.1,0.1,8.6,0.5,16.3,1.2c3.9,0.4,6.6,0.7,8,0.8c0.7,0.1,1,0.3,1,0.4c0.1,0.3-0.1,0.6-0.6,1c-3,2.5-5.2,3.3-6.7,2.4c-4.3-2-11.1-3.3-20.4-4.1c-5-0.5-8-0.8-9.2-0.8c-1.6,0-2.7,0.1-3.5,0.4c-0.9,0.3-1.6,0.1-2-0.4c-0.4-0.7-0.3-1.2,0.4-1.8c0.3-0.3,0.7-0.6,1.2-1c0.5-0.7,1-1.1,1.4-1.4c0.3-0.3,0.3-0.5,0.2-0.6c0-0.1-0.1-0.2-0.4-0.2c-0.1-0.1-0.4-0.1-0.8,0c-0.3,0-0.5,0-0.8,0C257.7,27.7,257.5,27,258.2,26.1z M261.7,15.3c1,0.7,1.9,1.3,2.5,2c0.3,0.3,0.4,0.5,0.4,0.8c-0.1,0.1-0.4,0.2-0.8,0.2s-1.2-0.1-2.5-0.2h-0.8c-1-0.5-1.4-1.2-1.2-2.2C260,15,260.8,14.8,261.7,15.3z M286.8,36.9c0,0.1,0.1,0.7,0.2,1.6c1.3,0,2.5,0,3.7,0c1.3,0.1,1.8,0.5,1.6,1.2c-0.3,0.8-1,1.2-2.2,1.2c-0.4-0.1-1.4-0.2-3.1-0.2c0.3,3.1-0.3,5.6-1.8,7.3c-3.8,3.9-7.8,4.6-12.2,2.2c-0.4-0.4-0.5-0.8-0.4-1.2c0.1-0.4,0.5-0.5,1-0.4c2.7,0.7,5.4,0.3,8-1c1.8-1.2,2.6-3.5,2.4-6.9c-8.1,0-12.5,0.1-13.1,0.4c-3.1,0.8-4.8,0.8-5.1,0c0.1-2,1.4-2.9,3.9-2.9c1.2,0.3,2.5,0.4,4.1,0.4c3.5,0,6.9,0,10.2,0c0-0.4-0.1-0.8-0.2-1.2c-0.1-1.2,0.3-1.7,1.4-1.6C286,35.7,286.6,36.1,286.8,36.9z M285.3,12.6c0.8,0.4,1,1,0.6,1.8c-0.4,0.4-0.7,0.8-0.8,1.2c1.7-0.1,4.5-0.2,8.4-0.2c0.4,0,0.6,0.1,0.6,0.2c0.1,0.1,0.1,0.4-0.2,0.8c-0.9,1.4-2,2-3.3,1.6c-2-0.5-4.8-0.7-8.6-0.4c-0.4,0-0.7,0.3-1,0.8c-0.1,0.1-0.2,0.3-0.2,0.6c0-0.3-0.1-0.1-0.2,0.4c3,0,5.2-0.1,6.5-0.4c2.2-0.1,3.3,0.5,3.3,2c-0.3,0.5-0.4,1.3-0.4,2.4c0,0.1,0,0.5,0,1c0.1,2.5,0,4.2-0.4,5.3c-0.4,1-1.2,1.4-2.5,1.2c-1.3-0.4-3.3-0.6-6.1-0.6c-3.3,0.1-5.6,0.4-6.9,0.8c-1.6,0.7-2.5,0.3-2.7-1c0-3.4-0.2-6.3-0.6-8.6c-0.1-1.2,0.3-1.8,1.4-1.8h1c2.7-0.1,4.5-0.2,5.3-0.2c0-0.3,0-0.6,0-1c0-0.4-0.3-0.6-0.8-0.6c-3.8,0.1-6.7,0.5-8.6,1.2c-1.6,0.4-2.3,0.1-2.2-0.8c0.4-1.3,1.4-2,2.9-2c1.6,0.1,3.2,0.2,4.9,0.2c0-0.4-0.3-1-0.8-1.8l-0.2-0.2c-0.4-0.7-0.1-1.1,0.8-1.4c1-0.3,1.7,0.1,2,1c0.3,1.2,0.3,1.9,0.2,2.2c2.1-0.3,4-0.4,5.7-0.4c0.4-0.9,0.7-1.6,0.8-2.2C283.6,12.8,284.3,12.4,285.3,12.6z M275.1,42.6c0.3,0.1,1.3,0.6,3.1,1.4c0.4,0.1,0.6,0.3,0.6,0.6c-0.1,0.3-0.4,0.5-0.8,0.6c-1.2,0.1-2.6,0.1-4.3-0.2c-1.3-0.5-1.8-1-1.4-1.4C273.1,42.4,274,42,275.1,42.6z M286.2,20.8c-4.2-0.1-8,0-11.4,0.4c-0.9,0-1.4,0.3-1.6,1c0.1,0.4,0.7,0.6,1.6,0.6c0.3,0,4.4-0.2,12.5-0.6C287.4,21.3,287,20.8,286.2,20.8z M274.7,24.1c-0.8,0-1.2,0.3-1.2,0.8c0,0.5,0.3,0.8,0.8,0.8c0.3,0,4.6-0.1,13.1-0.4c0-0.5,0-1.1,0-1.8C282.1,23.5,277.8,23.7,274.7,24.1z M274.7,27.3c-0.7,0.1-1,0.4-1,0.8s0.4,0.6,1.2,0.6c0.1,0,2-0.1,5.5-0.2l5.5-0.2c1.2,0,1.7-0.5,1.6-1.4C284.3,26.5,280,26.6,274.7,27.3z"></path><path id="lig" d="M319.6,14.9c0.3-1,0.8-1.4,1.6-1.2c1.8,1,2.3,2.2,1.4,3.3c-0.7,0.5-1.8,1.4-3.3,2.5c-0.9,0.7-1.6,1.1-2,1.4c0.4,0.4,2.7,0.3,6.9-0.2c1.6,0,2.3,1,2.2,2.9c-0.3,1-0.3,3.1-0.2,6.3c0.1,0,0.5-0.1,1-0.2c1.2-0.1,2.1-0.1,2.7,0c0.9,0.1,1.2,0.6,1,1.4c-0.3,1.7-1.1,2.2-2.5,1.6c-0.8-0.3-1.5-0.5-2.2-0.6c0,2.5,0.1,5.8,0.4,10c0.1,1,0.2,1.8,0.2,2.2c0.3,2.9-0.2,4.5-1.4,4.9c-0.9-0.1-1.4-1.7-1.4-4.7c0-2,0-6.1,0-12.4c-2.7,0.1-5.2,0.4-7.4,0.8c0.4,5.9-1,11-4.1,15.3c-0.9,1.2-2.1,1.6-3.5,1.4c-1-0.7-1-1.5,0.2-2.5c3.7-3.8,5.6-8.4,5.7-13.7c-1.4,0.1-2.5,0.5-3.3,1.2c-1.7,0.4-2.7,0.3-2.9-0.4c0-1.6,0.7-2.4,2-2.4c0.7-0.1,2-0.3,4.1-0.6c0-2.7-0.3-5.4-0.8-7.8c-0.3-1.6,0.5-2.4,2.2-2.5C317.9,18.2,319.2,16.2,319.6,14.9z M321.5,22.9c-2,0-3.2,0.1-3.7,0.2c-0.9,0.1-1.4,0.7-1.4,1.8c0,2,0,4,0,6.1c0.3,0,0.7,0,1.2,0c1.4-0.1,3.5-0.4,6.3-0.8c-0.1-0.7-0.2-1.6-0.2-2.9c-0.1-1-0.2-2-0.2-2.7C323.4,23.3,322.7,22.8,321.5,22.9z M319.4,24.3c1.2-0.3,1.8,0.1,2,1.2c0,1.2-0.3,2.4-0.8,3.7c-0.1,0.3-0.3,0.5-0.6,0.6c-0.1,0-0.3-0.1-0.4-0.4c-0.1-0.3-0.3-0.7-0.4-1.4c-0.3-0.9-0.5-1.6-0.8-2C318,25,318.3,24.5,319.4,24.3z M319.8,33.7c1.2,0.1,1.9,0.8,2.2,2c0,1-0.5,2.4-1.4,3.9c-0.1,0.3-0.3,0.4-0.6,0.4c-0.3,0-0.5-0.2-0.6-0.6c0-0.3-0.1-0.7-0.2-1.4c-0.1-1.3-0.3-2.2-0.4-2.7C318.5,34.1,318.8,33.6,319.8,33.7z M338.6,13.7c1.7,0.4,2.5,1.3,2.4,2.7v0.2c-0.7,1.3-1,2.7-1,4.3c6.1,0,9.7,0.1,10.6,0.4c1.3,0.1,1.7,0.6,1.2,1.4c-0.9,1.8-2,2.5-3.1,2.2c-3.3-1.8-6.3-2.5-9.2-2.2c-3.8,0.5-6.5,1.1-8.2,1.8c-0.9,0.5-1.6,0.7-2.2,0.4c-0.5-0.1-0.7-0.6-0.6-1.4c0.4-1.6,1.4-2.4,2.9-2.5c0.7,0.1,2.8,0.1,6.5,0c0.3-2.4-0.1-4.1-1-5.3C336.4,14.6,337,14,338.6,13.7z M335.4,27.8c1.4,0.7,3.4,0.7,5.9,0.2c2.1,0.1,2.9,0.9,2.5,2.4c-0.8,1.3-1.2,2.9-1.2,4.9c-0.4,7.3,0.7,10.6,3.3,9.8c2.4,0.5,4.2-0.2,5.7-2.2c0.3-0.3,0.5-0.3,0.6-0.2c0.3,0.1,0.3,0.3,0.2,0.6c-0.5,5-3.1,6.7-7.8,5.1c-3-0.4-4.4-2.7-4.1-7.1c0-3.1,0-6.3,0-9.6c0.1-0.7-0.1-1-0.8-1.2c-0.7,0-1.2,0-1.8,0c-0.9,0-1.4,0.8-1.4,2.4c0,6.3-1.2,11-3.7,14.1c-1.2,1.3-2.4,1.6-3.5,1c-0.5-0.5-0.3-1.3,0.6-2.4c3-2.5,4.4-6.7,4.3-12.7c0-2.1-0.1-3.3-0.4-3.5C333.9,28.2,334.4,27.7,335.4,27.8z"></path></g></svg>